<svg xmlns="http://www.w3.org/2000/svg" xmlns:xlink="http://www.w3.org/1999/xlink">
		<symbol id="check" viewBox="0 0 20 20">			
				<path d="M9.96519 11.9805L18.1668 2.97832L19.2496 3.96481L10.0404 14.0729L5.01997 9.30038L6.02934 8.23872L9.96519 11.9805ZM18.6808 6.74023L17.5386 7.99793C17.7044 8.63468 17.7927 9.30233 17.7927 9.99023C17.7927 14.3518 14.2441 17.9004 9.88257 17.9004C5.521 17.9004 1.97241 14.3518 1.97241 9.99023C1.97241 5.62866 5.521 2.08008 9.88257 2.08008C11.9031 2.08008 13.7488 2.84203 15.1486 4.09309L16.1361 3.00579C14.4145 1.46072 12.2136 0.615234 9.88257 0.615234C7.37849 0.615234 5.02409 1.59039 3.25346 3.36113C1.48272 5.13176 0.507568 7.48615 0.507568 9.99023C0.507568 12.4943 1.48272 14.8487 3.25346 16.6193C5.02409 18.3901 7.37849 19.3652 9.88257 19.3652C12.3867 19.3652 14.741 18.3901 16.5117 16.6193C18.2824 14.8487 19.2576 12.4943 19.2576 9.99023C19.2576 8.86322 19.0595 7.76688 18.6808 6.74023Z" />

		</symbol>
		<symbol id="star" viewBox="0 0 16 14">		
				<path
					d="M3.70012 13.9993C3.64527 13.9993 3.59042 13.9825 3.54432 13.9491C3.4627 13.8902 3.42191 13.7905 3.43913 13.6919L4.25817 8.95331L0.789387 5.59779C0.717314 5.52783 0.691353 5.42343 0.722355 5.32849C0.753622 5.23328 0.836548 5.16385 0.936443 5.14939L5.72984 4.45798L7.87375 0.146749C7.91827 0.0568061 8.01048 0 8.11117 0C8.21213 0 8.30433 0.0568061 8.34858 0.146749L10.4922 4.45798L15.2859 5.14939C15.3858 5.16385 15.4685 5.23302 15.5 5.32849C15.531 5.42343 15.5053 5.5281 15.433 5.59779L11.9642 8.95383L12.783 13.6922C12.7999 13.7908 12.7591 13.8905 12.6778 13.9494C12.5961 14.0088 12.4878 14.0164 12.3985 13.9694L8.11117 11.7323L3.82333 13.9694C3.78464 13.9893 3.74225 13.9993 3.70012 13.9993Z" />			
		</symbol>
		<symbol id="stararr" viewBox="0 0 16 14">
				<path opacity="0.5" d="M3.59246 13.9993C3.53761 13.9993 3.48275 13.9825 3.43665 13.9491C3.35504 13.8902 3.31424 13.7905 3.33146 13.6919L4.1505 8.95331L0.681721 5.59779C0.609648 5.52783 0.583687 5.42343 0.614689 5.32849C0.645956 5.23328 0.728882 5.16385 0.828777 5.14939L5.62217 4.45798L7.76609 0.146749C7.8106 0.0568061 7.90282 0 8.00351 0C8.10446 0 8.19667 0.0568061 8.24092 0.146749L10.3846 4.45798L15.1783 5.14939C15.2782 5.16385 15.3608 5.23302 15.3924 5.32849C15.4234 5.42343 15.3977 5.5281 15.3253 5.59779L11.8565 8.95383L12.6753 13.6922C12.6922 13.7908 12.6514 13.8905 12.5701 13.9494C12.4885 14.0088 12.3801 14.0164 12.2908 13.9694L8.00351 11.7323L3.71566 13.9694C3.67698 13.9893 3.63459 13.9993 3.59246 13.9993Z" />
		</symbol>
		<symbol id="basket" viewBox="0 0 30 28">
			
				<path
					d="M29.8751 4.24996C29.7501 4.12498 29.6251 3.99994 29.3751 3.99994H5.62506L5.00004 0.749981C5.00004 0.499961 4.62504 0.25 4.37502 0.25H0.625022C0.250081 0.249941 6.10352e-05 0.499961 6.10352e-05 0.874961C6.10352e-05 1.24996 0.250081 1.49998 0.625081 1.49998H3.8751L6.8751 16.75C7.2501 18.75 9.1251 20.25 11.1251 20.25H25.5001C25.8751 20.25 26.1251 20 26.1251 19.625C26.1251 19.25 25.8751 19 25.5001 19H11.2501C10.25 19 9.25008 18.5 8.75004 17.6249L27.0001 15.125C27.2501 15.125 27.5 14.875 27.5 14.625L30.0001 4.62496C30.0001 4.62496 30.0001 4.37494 29.8751 4.24996ZM26.375 14L8.12502 16.375L5.87502 5.12495H28.5001L26.375 14Z"
					 />
				<path
					d="M10.625 21.5C8.87508 21.5 7.50006 22.875 7.50006 24.625C7.50006 26.375 8.87508 27.75 10.625 27.75C12.3751 27.75 13.75 26.3749 13.75 24.625C13.7501 22.875 12.3751 21.5 10.625 21.5ZM10.625 26.5C9.62502 26.5 8.75004 25.6249 8.75004 24.625C8.75004 23.625 9.62502 22.75 10.625 22.75C11.6251 22.75 12.5 23.625 12.5 24.625C12.5 25.6249 11.6251 26.5 10.625 26.5Z"
					 />
				<path
					d="M23.1251 21.5C21.375 21.5 20.0001 22.875 20.0001 24.625C20.0001 26.375 21.3751 27.75 23.1251 27.75C24.8751 27.75 26.25 26.3749 26.25 24.625C26.25 22.875 24.875 21.5 23.1251 21.5ZM23.1251 26.5C22.125 26.5 21.2501 25.6249 21.2501 24.625C21.2501 23.625 22.125 22.75 23.1251 22.75C24.1251 22.75 25.0001 23.625 25.0001 24.625C25.0001 25.6249 24.125 26.5 23.1251 26.5Z"
					 />
			
		</symbol>
		<symbol id="compare" viewBox="0 0 30 26">
			
				<path
					d="M29.5545 15.632L26.1326 8.30251L27.6097 8.72622C27.9341 8.81932 28.2726 8.63193 28.3655 8.30728C28.4586 7.98287 28.2712 7.64461 27.9468 7.55151L17.6759 4.6041C17.678 4.56018 17.6792 4.51625 17.6792 4.47209C17.6794 3.2525 16.8561 2.18664 15.6759 1.87941C14.4957 1.57195 13.257 2.1007 12.6624 3.16537L2.39049 0.218194C2.06608 0.125095 1.72758 0.312725 1.63448 0.637138C1.54162 0.961551 1.72901 1.29981 2.05342 1.39291L4.08059 1.97466L0.409396 9.83792C0.164475 9.92362 0.000239036 10.1547 3.21511e-07 10.4144C-0.000715825 12.3984 1.19501 14.1868 3.02857 14.9443C4.86214 15.7019 6.97166 15.2789 8.37148 13.8732C9.30414 12.9639 9.83098 11.7171 9.83337 10.4144C9.83337 10.1408 9.65123 9.9007 9.38793 9.82646L5.97598 2.51869L12.3244 4.34008C12.3222 4.384 12.321 4.42793 12.321 4.47233C12.3229 5.71579 13.1787 6.79502 14.389 7.08005V21.9401C12.2929 21.9401 10.5306 21.9082 10.2335 21.9694C9.09932 22.2081 8.28507 23.2055 8.27791 24.3647V25.2202C8.28817 25.5652 8.56818 25.8411 8.91336 25.8461H21.0869C21.432 25.8411 21.712 25.5652 21.7223 25.2202V24.3647C21.7152 23.2055 20.9009 22.2081 19.7668 21.9694C19.5612 21.9082 17.6174 21.9401 15.6112 21.9401V7.08005C16.3436 6.90698 16.9697 6.4348 17.3378 5.77858L24.2548 7.76349L20.576 15.6435C20.3308 15.7292 20.1666 15.9602 20.1664 16.2197C20.1659 18.2037 21.3616 19.9921 23.1952 20.7496C25.0287 21.5072 27.138 21.0845 28.5379 19.6787C29.4705 18.7692 29.9976 17.5224 30 16.2197C29.9997 15.9461 29.8178 15.7062 29.5545 15.632ZM4.90129 3.07632L8.02821 9.77394H1.7746L4.90129 3.07632ZM4.90129 14.0639C3.10138 14.0744 1.56191 12.7729 1.27307 10.9962H8.55744C8.2464 12.7715 6.70382 14.066 4.90129 14.0639ZM20.5001 24.3647V24.6239H9.50012V24.3647C9.50012 23.6908 10.073 23.1572 10.7467 23.1572H19.2535C19.9272 23.1572 20.5001 23.6908 20.5001 24.3647ZM15.0001 5.92897C14.3787 5.92944 13.8254 5.53604 13.6218 4.94904C13.4181 4.36204 13.6089 3.71059 14.0968 3.32602C14.585 2.94145 15.2632 2.90851 15.7862 3.24414C16.3092 3.57954 16.562 4.2095 16.4162 4.81345C16.4006 4.85212 16.3892 4.89199 16.3818 4.93281C16.1829 5.52721 15.6267 5.92825 15.0001 5.92897ZM28.1948 15.5795H21.9412L25.0679 8.88187L28.1948 15.5795ZM25.0679 19.8694C23.268 19.8799 21.7285 18.5785 21.4397 16.8017H28.7241C28.413 18.577 26.8704 19.8716 25.0679 19.8694Z" />
			
		</symbol>
		<symbol id="fav" viewBox="0 0 31 24">
				<path
					d="M30.4293 4.82626C29.4387 2.14006 27.0674 0.38253 24.2415 0.238682C24.2303 0.238389 24.2198 0.238037 24.209 0.238037H23.7943C20.2266 0.238037 17.162 2.43485 15.8824 5.54661C14.6028 2.43485 11.5382 0.238037 7.97053 0.238037H7.5558C7.54496 0.238037 7.53412 0.23833 7.52328 0.238682C4.70373 0.382237 2.33975 2.14106 1.3546 4.82913C0.337525 7.60433 1.03081 10.5707 3.16159 12.5697L14.3709 23.1719C14.8083 23.5656 15.3615 23.7621 15.9105 23.7621C16.465 23.7621 17.015 23.5618 17.4367 23.162L19.1409 21.5538C19.5687 21.126 19.8109 20.562 19.8224 19.9663C19.8339 19.3573 19.6035 18.7846 19.1729 18.3543C18.9237 18.1051 18.5198 18.1051 18.2706 18.3543C18.0215 18.6034 18.0215 19.0073 18.2706 19.2565C18.6525 19.6387 18.6388 20.2512 18.2521 20.6382L16.5603 22.2343C16.1982 22.5766 15.6112 22.5715 15.236 22.234L4.03634 11.6404C2.28332 9.99579 1.71513 7.55429 2.55286 5.26812C3.35683 3.07388 5.27924 1.63633 7.57239 1.51381H7.97053C11.9813 1.51381 15.2443 4.7768 15.2443 8.78758C15.2443 9.13979 15.5301 9.42561 15.8823 9.42561C16.2345 9.42561 16.5204 9.13979 16.5204 8.78758C16.5204 4.7768 19.7834 1.51381 23.7941 1.51381H24.1923C26.4928 1.63697 28.4229 3.07417 29.2319 5.26776C30.0719 7.54561 29.5072 9.98805 27.7456 11.6546L24.1725 15.2277C23.7434 15.6568 23.507 16.219 23.507 16.8113C23.507 17.4038 23.7433 17.9659 24.1725 18.395C24.4216 18.6441 24.8255 18.6441 25.0747 18.395C25.3239 18.1458 25.3239 17.7419 25.0747 17.4927C24.8865 17.3045 24.7831 17.0627 24.7831 16.8113C24.7831 16.5599 24.8865 16.3181 25.0747 16.1298L28.635 12.5692C30.7618 10.5582 31.449 7.59126 30.4293 4.82626Z"
					 />		
		</symbol>
		<symbol id="oneclick" viewBox="0 0 30 30">			
				<path
					d="M29.2129 23.1434L23.1408 19.094C22.3702 18.5843 21.3373 18.752 20.7676 19.4795L18.9989 21.7536C18.7715 22.0533 18.3583 22.1403 18.0295 21.9576L17.6931 21.7721C16.5777 21.1642 15.1899 20.4073 12.3939 17.6102C9.59777 14.8132 8.83939 13.4243 8.23145 12.3111L8.04696 11.9746C7.86178 11.6458 7.94708 11.2309 8.24691 11.0017L10.5195 9.23352C11.2467 8.66378 11.4147 7.63116 10.9055 6.86036L6.85611 0.788251C6.33429 0.00332834 5.28737 -0.232301 4.47954 0.253311L1.94041 1.77857C1.1426 2.2476 0.557275 3.00722 0.307176 3.89824C-0.607161 7.22974 0.0806853 12.9794 8.55044 21.4501C15.288 28.1871 20.3037 29.9989 23.7512 29.9989C24.5446 30.0023 25.3349 29.899 26.1009 29.6919C26.9921 29.4421 27.7518 28.8568 28.2206 28.0587L29.7473 25.5211C30.2337 24.7131 29.9981 23.6655 29.2129 23.1434ZM28.8859 25.0081L27.3626 27.5473C27.0261 28.1233 26.4796 28.5468 25.8378 28.7291C22.7623 29.5735 17.3891 28.8741 9.2578 20.7428C1.12649 12.6115 0.427158 7.23876 1.27154 4.16275C1.4541 3.52019 1.87813 2.97306 2.45485 2.63596L4.99398 1.11269C5.34449 0.901789 5.79888 1.00402 6.02531 1.34463L8.22501 4.64713L10.0713 7.41621C10.2924 7.75056 10.2197 8.19867 9.90429 8.44608L7.63113 10.2143C6.93936 10.7433 6.74181 11.7004 7.16772 12.46L7.34822 12.7879C7.98715 13.9598 8.7815 15.4175 11.6816 18.3171C14.5817 21.2167 16.039 22.0111 17.2103 22.65L17.5387 22.8309C18.2982 23.2568 19.2554 23.0593 19.7844 22.3675L21.5526 20.0944C21.8 19.7791 22.248 19.7065 22.5824 19.9274L28.654 23.9768C28.9949 24.2031 29.0971 24.6577 28.8859 25.0081Z"
					 />
				<path
					d="M16.9992 5.00262C21.6907 5.00783 25.4927 8.80983 25.4979 13.5014C25.4979 13.7775 25.7217 14.0013 25.9978 14.0013C26.2739 14.0013 26.4977 13.7775 26.4977 13.5014C26.4919 8.25784 22.2427 4.00855 16.9992 4.00281C16.7231 4.00281 16.4993 4.2266 16.4993 4.50271C16.4993 4.77883 16.7231 5.00262 16.9992 5.00262Z"
					 />
				<path
					d="M16.9992 8.00225C20.0348 8.00583 22.4948 10.4658 22.4984 13.5015C22.4984 13.7776 22.7222 14.0014 22.9983 14.0014C23.2744 14.0014 23.4982 13.7776 23.4982 13.5015C23.494 9.91383 20.5867 7.00654 16.9992 7.00244C16.7231 7.00244 16.4993 7.22624 16.4993 7.50235C16.4993 7.77846 16.7231 8.00225 16.9992 8.00225Z"
					 />
				<path
					d="M16.9992 11.0018C18.379 11.0034 19.4971 12.1216 19.4988 13.5014C19.4988 13.7775 19.7227 14.0013 19.9987 14.0013C20.2748 14.0013 20.4986 13.7775 20.4986 13.5014C20.4964 11.5696 18.931 10.0041 16.9992 10.002C16.7231 10.002 16.4993 10.2257 16.4993 10.5019C16.4993 10.778 16.7231 11.0018 16.9992 11.0018Z"
					 />			
		</symbol>
		<symbol id="surface" viewBox="0 0 18 20">
			<path d="M17.4957 5.42651L17.4951 5.41094C17.4864 5.21883 17.4806 5.01559 17.4771 4.78945C17.4607 3.6867 16.5841 2.77454 15.4812 2.71289C13.1817 2.58456 11.4029 1.83475 9.88293 0.353278L9.86996 0.340919C9.3742 -0.11364 8.62637 -0.11364 8.13046 0.340919L8.11749 0.353278C6.59757 1.83475 4.8187 2.58456 2.51921 2.71304C1.41646 2.77454 0.539692 3.6867 0.523365 4.78961C0.520008 5.01421 0.514058 5.21746 0.50536 5.41094L0.504445 5.44711C0.459736 7.79192 0.404195 10.7102 1.38045 13.3589C1.91725 14.8155 2.73024 16.0817 3.79667 17.1225C5.01127 18.3078 6.60214 19.2488 8.52505 19.9193C8.58761 19.9411 8.65261 19.9588 8.71884 19.9721C8.81222 19.9907 8.90621 20 9.00021 20C9.0942 20 9.18835 19.9907 9.28158 19.9721C9.3478 19.9588 9.41326 19.9409 9.47613 19.919C11.3967 19.2473 12.9859 18.3058 14.1995 17.1207C15.2654 16.0796 16.0784 14.8131 16.6157 13.3562C17.5956 10.6995 17.5402 7.77574 17.4957 5.42651ZM15.5146 12.9501C14.485 15.7419 12.3831 17.6591 9.08886 18.8112C9.07711 18.8151 9.0646 18.8187 9.05163 18.8212C9.0176 18.828 8.98297 18.828 8.94848 18.8211C8.93566 18.8185 8.92315 18.8151 8.91156 18.8112C5.61384 17.6613 3.51057 15.7451 2.48167 12.9532C1.58186 10.5116 1.63283 7.83281 1.67784 5.46954L1.67815 5.45641C1.6873 5.25332 1.69341 5.04061 1.69676 4.80685C1.70409 4.3172 2.0941 3.91208 2.58467 3.88476C3.88594 3.81213 5.02912 3.56067 6.07953 3.11603C7.12857 2.672 8.06027 2.04608 8.92758 1.20258C8.97167 1.16535 9.0289 1.1652 9.07284 1.20258C9.9403 2.04608 10.872 2.672 11.9209 3.11603C12.9713 3.56067 14.1145 3.81213 15.4159 3.88476C15.9065 3.91208 16.2965 4.3172 16.3037 4.807C16.3072 5.04199 16.3133 5.25469 16.3224 5.45641C16.3673 7.82243 16.417 10.5034 15.5146 12.9501Z" />
			<path d="M9 5.01611C6.25159 5.01611 4.01572 7.25214 4.01572 10.0004C4.01572 12.7488 6.25159 14.9848 9 14.9848C11.7483 14.9848 13.9843 12.7488 13.9843 10.0004C13.9843 7.25214 11.7483 5.01611 9 5.01611ZM9 13.8111C6.89872 13.8111 5.18927 12.1017 5.18927 10.0004C5.18927 7.89911 6.89872 6.18967 9 6.18967C11.1011 6.18967 12.8106 7.89911 12.8106 10.0004C12.8106 12.1017 11.1011 13.8111 9 13.8111Z" />
			<path d="M10.4325 8.45289L8.11741 10.768L7.48905 10.1396C7.25986 9.91041 6.88831 9.91041 6.65913 10.1396C6.43009 10.3688 6.43009 10.7403 6.65913 10.9694L7.70252 12.0128C7.81712 12.1274 7.96726 12.1846 8.11741 12.1846C8.26756 12.1846 8.4177 12.1274 8.5323 12.0128L11.2624 9.28266C11.4914 9.05347 11.4914 8.68192 11.2624 8.45289C11.0332 8.22355 10.6617 8.22355 10.4325 8.45289Z"/>

		</symbol>
		<symbol id="delivery" viewBox="0 0 20 20">
			<path d="M16.6667 11.011V4.58332C16.6667 4.50465 16.6391 4.43527 16.6012 4.3725L16.6073 4.36891L14.1073 0.202227C14.032 0.0769141 13.8965 0 13.75 0H2.91668C2.7702 0 2.63469 0.0769141 2.55941 0.202227L0.0594141 4.36891L0.0654688 4.3725C0.0276172 4.43527 0 4.50465 0 4.58332V16.25C0 16.4803 0.186367 16.6667 0.41668 16.6667H11.011C11.557 18.5875 13.3232 20 15.4167 20C17.9439 20 20 17.9439 20 15.4167C20 13.3232 18.5875 11.557 16.6667 11.011ZM13.514 0.83332L15.5141 4.16664H10.7582L10.0916 0.83332H13.514ZM7.42488 0.83332H9.24246L9.91582 4.16664H6.7582L7.42488 0.83332ZM10 5V6.66668H6.66543L6.65969 5H10ZM3.15266 0.83332H6.57605L5.91586 4.16664H1.15262L3.15266 0.83332ZM10.8545 15.8333H0.83332V5H5.83332V7.08332C5.83332 7.31363 6.01969 7.5 6.25 7.5H10.4167C10.647 7.5 10.8334 7.31363 10.8334 7.08332L10.8268 5H15.8333V10.8545C15.6959 10.842 15.5573 10.8334 15.4166 10.8334C12.8894 10.8334 10.8333 12.8894 10.8333 15.4167C10.8333 15.5573 10.842 15.6959 10.8545 15.8333ZM15.4167 19.1667C13.3488 19.1667 11.6667 17.4845 11.6667 15.4167C11.6667 13.3488 13.3488 11.6667 15.4167 11.6667C17.4845 11.6667 19.1667 13.3488 19.1667 15.4167C19.1667 17.4845 17.4845 19.1667 15.4167 19.1667Z" />
		</symbol>
		<symbol id="credits" viewBox="0 0 20 18">
			<path d="M18.9993 12.2046H17.08L16.5413 16.2693C16.4642 16.815 15.963 17.1977 15.4162 17.1282L0.868834 15.2003C0.605199 15.1649 0.366457 15.0261 0.205391 14.8143C0.0436164 14.604 -0.0270141 14.3376 0.0092601 14.0748L1.23675 4.81765C1.30196 4.3191 1.72695 3.94635 2.22974 3.94673C2.27281 3.94681 2.3158 3.94973 2.35849 3.9554L3.32214 4.08249V1.86434C3.32214 1.31168 3.77014 0.863667 4.3228 0.863667H18.9993C19.5519 0.863667 19.9999 1.31168 19.9999 1.86434V11.2039C19.9999 11.7566 19.5519 12.2046 18.9993 12.2046ZM16.4072 12.2046H13.8025L16.3622 12.5438L16.4072 12.2046ZM0.669701 14.1649C0.657985 14.252 0.681751 14.3401 0.735745 14.4094C0.789406 14.4807 0.869417 14.5276 0.957893 14.5395L15.5026 16.4668C15.6855 16.49 15.8533 16.3624 15.8799 16.1799L16.0116 15.1866L0.801455 13.1696L0.669701 14.1649ZM3.32214 4.75527L2.27277 4.61684C2.09015 4.59258 1.92245 4.72095 1.89819 4.90358C1.89819 4.90362 1.89819 4.90366 1.89819 4.9037L1.15402 10.5268L3.32214 10.8133V4.75527ZM3.36617 11.4918L1.06463 11.1882L0.889514 12.5078L16.0997 14.5251L16.1997 13.7606L16.2738 13.2053L8.72574 12.2046H4.3228C3.88168 12.2038 3.49308 11.9143 3.36617 11.4918ZM19.3328 1.86434C19.3328 1.68013 19.1835 1.53078 18.9993 1.53078H4.3228C4.1386 1.53078 3.98925 1.68013 3.98925 1.86434V11.1939C3.98925 11.1972 3.99092 11.2006 3.99092 11.2039C3.99092 11.3881 4.14027 11.5375 4.32447 11.5375H18.9993C19.1835 11.5375 19.3328 11.3881 19.3328 11.2039V1.86434Z" />
			<path d="M14.6451 7.19354C14.7792 7.29253 14.8977 7.41102 14.9966 7.54511C15.545 6.80691 16.5881 6.65306 17.3263 7.20151C18.0645 7.74992 18.2183 8.79295 17.6699 9.53115C17.3552 9.95469 16.8585 10.204 16.3309 10.2033C15.8038 10.2018 15.3088 9.95044 14.9966 9.52582C14.4497 10.2669 13.4055 10.4243 12.6644 9.87739C11.9233 9.33044 11.7659 8.28628 12.3128 7.54511C12.8598 6.80403 13.904 6.64659 14.6451 7.19354ZM16.3309 9.53616C16.8835 9.53616 17.3315 9.08815 17.3315 8.53549C17.3315 7.98282 16.8835 7.53482 16.3309 7.53482C15.7782 7.53482 15.3302 7.98282 15.3302 8.53549C15.3302 9.08815 15.7782 9.53616 16.3309 9.53616ZM13.6624 9.53616C14.2151 9.53616 14.6631 9.08815 14.6631 8.53549C14.6631 7.98282 14.2151 7.53482 13.6624 7.53482C13.1098 7.53482 12.6617 7.98282 12.6617 8.53549C12.6617 9.08815 13.1098 9.53616 13.6624 9.53616Z" />
			<path d="M5.99069 9.86975H5.32358V9.20264H5.99069V9.86975Z" />
			<path d="M10.6605 9.86975H6.65781V9.20264H10.6605V9.86975Z" />
			<path d="M10.6605 8.53552H5.32358V7.86839H10.6605V8.53552Z" />
			<path d="M17.6652 5.53345H5.65714C5.47293 5.53345 5.32358 5.3841 5.32358 5.19989V3.19855C5.32358 3.01434 5.47293 2.865 5.65714 2.865H17.6652C17.8494 2.865 17.9987 3.01434 17.9987 3.19855V5.19989C17.9987 5.3841 17.8494 5.53345 17.6652 5.53345ZM17.3316 3.53211H5.99069V4.86633H17.3316V3.53211Z" />
		</symbol >
		<symbol id="instagram" viewBox="0 0 22 22">
			<path opacity="0.5" d="M21.4436 3.0842C21.2247 2.50021 20.8872 1.97097 20.4403 1.5421C20.0116 1.09498 19.4826 0.757362 18.8988 0.538366C18.4245 0.355869 17.7131 0.136873 16.4088 0.0729988C14.995 0.0182497 14.5755 0 10.9909 0C7.41542 0 6.98673 0.00912484 5.57297 0.0821236C4.26866 0.136873 3.55721 0.355869 3.08292 0.538366C2.49917 0.757362 1.97015 1.09498 1.54146 1.5421C1.09453 1.97097 0.757048 2.50021 0.538143 3.0842C0.355721 3.55869 0.136816 4.27043 0.0729685 5.57528C0.0182421 6.98963 0 7.4185 0 10.9954C0 14.5815 0.0182421 15.0012 0.0820896 16.4156C0.145937 17.7204 0.355721 18.4322 0.547264 18.9067C0.766169 19.4907 1.10365 20.0199 1.55058 20.4488C1.97927 20.8959 2.50829 21.2335 3.09204 21.4525C3.56633 21.635 4.27778 21.854 5.58209 21.9179C6.99585 21.9817 7.41542 22 11 22C14.5846 22 15.0041 21.9909 16.4179 21.9179C17.7222 21.854 18.4337 21.6441 18.908 21.4525C20.0755 21.0054 21.0058 20.0747 21.4527 18.9067C21.6352 18.4322 21.8541 17.7204 21.9179 16.4156C21.9818 15.0012 22 14.5724 22 10.9954C22 7.40937 21.9909 6.98963 21.9179 5.57528C21.8449 4.27043 21.626 3.55869 21.4436 3.0842ZM10.9909 17.8847C7.1874 17.8847 4.10448 14.8005 4.10448 10.9954C4.10448 7.19038 7.1874 4.10618 10.9909 4.10618C14.7944 4.10618 17.8773 7.19038 17.8773 10.9954C17.8773 14.8005 14.7944 17.8847 10.9909 17.8847ZM18.1509 5.44753C17.2662 5.44753 16.5456 4.72667 16.5456 3.84156C16.5456 2.95645 17.2662 2.23559 18.1509 2.23559C19.0357 2.23559 19.7562 2.95645 19.7562 3.84156C19.7562 4.72667 19.0357 5.44753 18.1509 5.44753Z" />
		</symbol>
		<symbol id="facebook" viewBox="0 0 12 24">
			<path opacity="0.5" d="M7.5 8.25V5.25C7.5 4.42031 8.17031 3.75 9 3.75H10.5V0H7.5C5.01562 0 3 2.01562 3 4.5V8.25H0V12H3V24H7.5V12H10.5L12 8.25H7.5Z" />
		</symbol>
		<symbol id="twitter" viewBox="0 0 22 18">
				<path opacity="0.5" d="M22 2.11647C21.1905 2.47545 20.3206 2.71807 19.4076 2.82719C20.3396 2.26856 21.0552 1.38402 21.3922 0.330093C20.5201 0.847281 19.5542 1.22292 18.5261 1.42539C17.7027 0.548169 16.5297 0 15.2315 0C12.7387 0 10.7178 2.02087 10.7178 4.51346C10.7178 4.86722 10.7578 5.21171 10.8347 5.54205C7.08347 5.35382 3.75768 3.5569 1.53153 0.826197C1.14301 1.49282 0.920429 2.26816 0.920429 3.09532C0.920429 4.66121 1.71733 6.04274 2.92842 6.85212C2.18849 6.8287 1.49258 6.62567 0.883975 6.28761C0.883653 6.30644 0.883653 6.32535 0.883653 6.34434C0.883653 8.53123 2.43948 10.3555 4.50429 10.7701C4.12551 10.8733 3.72678 10.9284 3.31509 10.9284C3.02427 10.9284 2.74149 10.9001 2.46596 10.8474C3.04028 12.6406 4.70716 13.9456 6.68224 13.982C5.13752 15.1925 3.19132 15.9141 1.0767 15.9141C0.712411 15.9141 0.353107 15.8928 0 15.8511C1.99745 17.1317 4.36998 17.8789 6.91891 17.8789C15.221 17.8789 19.7608 11.0013 19.7608 5.03685C19.7608 4.84114 19.7565 4.64648 19.7478 4.45295C20.6296 3.81658 21.3949 3.02161 22 2.11647Z" />
		</symbol>
		<symbol id="youtube" viewBox="0 0 26 18">
			<path opacity="0.5" d="M24.895 1.7225C24.1898 0.468 23.4244 0.23725 21.866 0.1495C20.3093 0.043875 16.3946 0 13.0033 0C9.60538 0 5.68913 0.0438751 4.134 0.147875C2.57887 0.23725 1.81187 0.466375 1.10012 1.7225C0.37375 2.97537 0 5.13338 0 8.93263C0 8.93588 0 8.9375 0 8.9375C0 8.94075 0 8.94238 0 8.94238V8.94563C0 12.7286 0.37375 14.9029 1.10012 16.1427C1.81187 17.3972 2.57725 17.6248 4.13237 17.7304C5.68913 17.8214 9.60538 17.875 13.0033 17.875C16.3946 17.875 20.3092 17.8214 21.8676 17.732C23.426 17.6264 24.1914 17.3989 24.8966 16.1444C25.6295 14.9045 26 12.7302 26 8.94725C26 8.94725 26 8.94238 26 8.93913V8.93425C26 5.13338 25.6295 2.97537 24.895 1.7225ZM9.75 13.8125V4.0625L17.875 8.9375L9.75 13.8125Z" />
		</symbol>
		<symbol id="mail" viewBox="0 0 84 30">
				<path fill-rule="evenodd" clip-rule="evenodd" d="M36.6489 5.08917C36.6489 5.08917 36.6489 5.08917 38.4098 5.08917C39.0514 5.08917 39.3747 5.40724 39.3747 6.12532C39.3747 6.12532 39.3747 6.12532 39.3747 8.66989C39.3747 8.66989 39.3747 8.66989 42.8242 8.66989C42.8242 8.66989 42.8242 8.6699 42.8242 6.12532C42.8242 5.40724 43.1426 5.08917 43.8662 5.08917C43.8662 5.08917 43.8662 5.08917 45.55 5.08917C45.55 5.08917 45.55 5.08917 45.55 6.76146C45.55 6.76146 45.55 6.76146 44.8311 6.76146L44.7491 6.84339C44.7491 6.84339 44.7491 6.84339 44.7491 14.0048C44.7491 14.0048 44.7491 14.0048 42.8242 14.0048C42.8242 14.0048 42.8242 14.0048 42.8242 10.4241C42.8242 10.4241 42.8242 10.4241 39.3747 10.4241C39.3747 10.4241 39.3747 10.4241 39.3747 14.0048C39.3747 14.0048 39.3747 14.0048 37.4497 14.0048C37.4497 14.0048 37.4497 14.0048 37.4497 6.84339C37.4497 6.84339 37.4497 6.76146 37.3677 6.76146C37.3677 6.76146 37.3677 6.76146 36.6489 6.76146C36.6489 6.76146 36.6489 6.76146 36.6489 5.08917Z" fill="white"/>
				<path fill-rule="evenodd" clip-rule="evenodd" d="M50.6011 4.93011L50.6446 4.93493V6.77108L50.6011 6.76144C49.1586 6.76144 48.0345 7.95662 48.0345 9.46987C48.0345 11.0602 49.1586 12.3325 50.6011 12.3325L50.6446 12.3229V14.159L50.6011 14.1638C48.0345 14.1638 45.9504 12.0964 45.9504 9.46987C45.9504 6.92048 48.0345 4.93011 50.6011 4.93011Z" />
				<path fill-rule="evenodd" clip-rule="evenodd" d="M50.6447 4.93491L51.5372 5.02166C53.6552 5.43611 55.2521 7.23852 55.2521 9.46985C55.2521 11.7638 53.6552 13.6385 51.5372 14.0674L50.6447 14.159V12.3229L51.6241 12.1108C52.5697 11.6771 53.2499 10.6602 53.2499 9.46985C53.2499 8.3325 52.5697 7.37828 51.6241 6.97346L50.6447 6.77105V4.93491Z" />
				<path fill-rule="evenodd" clip-rule="evenodd" d="M55.6523 5.08917C55.6523 5.08917 55.6523 5.08917 58.3395 5.08917H59.6228V6.76146H59.5022C59.343 6.76146 59.0198 6.76146 58.3781 6.76146C58.3781 6.76146 58.3781 6.76146 58.3781 8.59279C58.3781 8.59279 58.3781 8.59279 58.9233 8.59279H59.6228V10.1831H59.2127C59.0101 10.1831 58.7399 10.1831 58.3781 10.1831C58.3781 10.1831 58.3781 10.1831 58.3781 12.1735C58.3781 12.2554 58.3781 12.2554 58.4601 12.2554C58.4601 12.2554 58.4601 12.2554 59.0342 12.2554H59.6228V14.0048H59.454C59.1645 14.0048 58.5807 14.0048 57.418 14.0048C56.7764 14.0048 56.458 13.6868 56.458 12.9687V6.76146C56.458 6.76146 56.458 6.76146 55.6523 6.76146C55.6523 6.76146 55.6523 6.76146 55.6523 5.08917Z" />
				<path fill-rule="evenodd" clip-rule="evenodd" d="M59.623 5.08917H59.6616C61.4274 5.08917 62.4695 6.04339 62.4695 7.47954C62.4695 8.35182 62.069 8.91086 61.6686 9.31086C62.3923 9.62893 62.8699 10.4241 62.8699 11.2964C62.8699 12.9687 61.5866 14.0048 59.7437 14.0048C59.7437 14.0048 59.7437 14.0048 59.7099 14.0048H59.623V12.2554H59.8208C60.4625 12.2554 60.8678 11.8554 60.8678 11.2193C60.8678 10.5831 60.4625 10.1831 59.8208 10.1831C59.8208 10.1831 59.8208 10.1831 59.6423 10.1831H59.623V8.59279H59.6616C60.2261 8.59279 60.5445 8.19279 60.5445 7.63857C60.5445 7.07954 60.2261 6.76146 59.6616 6.76146C59.6616 6.76146 59.6616 6.76146 59.6423 6.76146H59.623V5.08917Z" />
				<path fill-rule="evenodd" clip-rule="evenodd" d="M66.5604 5.08917C66.5604 5.08917 66.5604 5.08917 67.3709 5.08917H67.5205V7.63857C67.4433 7.79761 67.3613 8.03375 67.3613 8.27472C67.3613 8.27472 67.3613 8.27472 66.7196 10.106C66.7196 10.106 66.7196 10.106 67.3999 10.106H67.5205V11.7735H67.0863C66.8402 11.7735 66.5604 11.7735 66.242 11.7735C66.242 11.7735 66.242 11.7735 65.6776 13.2097C65.5183 13.7639 65.1999 14.0048 64.5583 14.0048C64.5583 14.0048 64.5583 14.0048 63.3522 14.0048C63.3522 14.0048 63.3522 14.0048 63.3522 12.2554C63.3522 12.2554 63.3522 12.2554 63.7526 12.2554C63.9166 12.2554 63.9166 12.2554 63.9938 12.1735C63.9938 12.1735 63.9938 12.1735 66.5604 5.08917Z" />
				<path fill-rule="evenodd" clip-rule="evenodd" d="M67.5203 5.08917H68.4852C68.4852 5.08917 68.4852 5.08917 71.0518 12.1735C71.129 12.2554 71.129 12.2554 71.2882 12.2554C71.2882 12.2554 71.2882 12.2554 71.6115 12.2554C71.6115 12.2554 71.6115 12.2554 71.6115 14.0048C71.6115 14.0048 71.6115 14.0048 70.4874 14.0048C69.8457 14.0048 69.5273 13.7639 69.3633 13.1277C69.3633 13.1277 69.3633 13.1277 68.8036 11.7735C68.8036 11.7735 68.8036 11.7735 67.723 11.7735H67.5203V10.106H68.3212C68.3212 10.106 68.3212 10.106 67.6844 8.27472C67.6844 8.03375 67.6023 7.79761 67.5203 7.63857V5.08917Z" />
				<path fill-rule="evenodd" clip-rule="evenodd" d="M36.6489 16.5494C36.6489 16.5494 36.6489 16.5494 43.625 16.5494C44.2667 16.5494 44.6671 16.8675 44.6671 17.5856C44.6671 17.5856 44.6671 17.5856 44.6671 23.6337C44.6671 23.7109 44.6671 23.7109 44.7491 23.7109C44.7491 23.7109 44.7491 23.7109 45.3908 23.7109C45.3908 23.7109 45.3908 23.7109 45.3908 25.4651C45.3908 25.4651 45.3908 25.4651 43.707 25.4651C42.9834 25.4651 42.6649 25.147 42.6649 24.4289C42.6649 24.4289 42.6649 24.4289 42.6649 18.3036C42.6649 18.3036 42.6649 18.2217 42.5829 18.2217C42.5829 18.2217 42.5829 18.2217 39.3747 18.2217C39.3747 18.2217 39.3747 18.2217 39.3747 25.4651C39.3747 25.4651 39.3747 25.4651 37.4497 25.4651C37.4497 25.4651 37.4497 25.4651 37.4497 18.2217C37.4497 18.2217 37.4497 18.2217 36.6489 18.2217C36.6489 18.2217 36.6489 18.2217 36.6489 16.5494Z" fill="white"/>
				<path fill-rule="evenodd" clip-rule="evenodd" d="M50.4421 16.3904L50.4807 16.3952V18.2314L50.4421 18.2217C48.9948 18.2217 47.8755 19.4169 47.8755 20.9302C47.8755 22.5205 48.9948 23.7928 50.4421 23.7928L50.4807 23.7832V25.6193L50.4421 25.6241C47.8755 25.6241 45.8685 23.5519 45.8685 20.9302C45.8685 18.3808 47.8755 16.3904 50.4421 16.3904Z" />
				<path fill-rule="evenodd" clip-rule="evenodd" d="M50.4805 16.3951L51.4019 16.4819C53.5585 16.8963 55.0926 18.6988 55.0926 20.9301C55.0926 23.2241 53.5585 25.0988 51.4019 25.5277L50.4805 25.6192V23.7831L51.4984 23.571C52.4585 23.1373 53.0905 22.1204 53.0905 20.9301C53.0905 19.7927 52.4585 18.8385 51.4984 18.4337L50.4805 18.2313V16.3951Z" />
				<path fill-rule="evenodd" clip-rule="evenodd" d="M55.4931 16.5494C55.4931 16.5494 55.4931 16.5494 57.2589 16.5494C57.9005 16.5494 58.2189 16.8675 58.2189 17.5856C58.2189 17.5856 58.2189 17.5856 58.2189 23.6337C58.2189 23.7109 58.2189 23.7109 58.3009 23.7109C58.3009 23.7109 58.3009 23.7109 60.6263 23.7109C60.6263 23.7109 60.6263 23.7109 60.6263 16.5494C60.6263 16.5494 60.6263 16.5494 62.5513 16.5494C62.5513 16.5494 62.5513 16.5494 62.5513 23.7109C62.5513 23.7109 62.5513 23.7109 64.8766 23.7109C64.9587 23.7109 64.9587 23.7109 64.9587 23.6337C64.9587 23.6337 64.9587 23.6337 64.9587 17.5856C64.9587 16.8675 65.2771 16.5494 65.9187 16.5494C65.9187 16.5494 65.9187 16.5494 67.6845 16.5494C67.6845 16.5494 67.6845 16.5494 67.6845 18.2217C67.6845 18.2217 67.6845 18.2217 66.9608 18.2217C66.8788 18.2217 66.8788 18.3036 66.8788 18.3036C66.8788 18.3036 66.8788 18.3036 66.8788 24.4289C66.8788 25.147 66.5604 25.4651 65.9187 25.4651C65.9187 25.4651 65.9187 25.4651 57.336 25.4651C56.6172 25.4651 56.294 25.147 56.294 24.4289C56.294 24.4289 56.294 24.4289 56.294 18.3036C56.294 18.3036 56.294 18.2217 56.2168 18.2217C56.2168 18.2217 56.2168 18.2217 55.4931 18.2217C55.4931 18.2217 55.4931 18.2217 55.4931 16.5494Z" fill="white"/>
				<path fill-rule="evenodd" clip-rule="evenodd" d="M69.2039 16.5494C69.2039 16.5494 69.2039 16.5494 75.22 16.5494C75.9437 16.5494 76.1849 16.8675 76.1849 17.5036C76.1849 17.5036 76.1849 17.5036 76.1849 19.0169H74.4191C74.4191 19.0169 74.4191 19.0169 74.4191 18.3036C74.4191 18.2217 74.4191 18.2217 74.3371 18.2217C74.3371 18.2217 74.3371 18.2217 73.2179 18.2217C73.2179 18.2217 73.2179 18.2217 73.2179 25.4651C73.2179 25.4651 73.2179 25.4651 71.2881 25.4651C71.2881 25.4651 71.2881 25.4651 71.2881 18.2217C71.2881 18.2217 71.2881 18.2217 70.1688 18.2217C70.0868 18.2217 70.0868 18.2217 70.0868 18.3036C70.0868 18.3036 70.0868 18.3036 70.0868 19.0169C70.0868 19.0169 70.0868 19.0169 68.321 19.0169C68.321 19.0169 68.321 19.0169 68.321 17.5036C68.321 16.8675 68.5623 16.5494 69.2039 16.5494Z" fill="white"/>
				<path fill-rule="evenodd" clip-rule="evenodd" d="M78.6699 16.5494C78.6699 16.5494 78.6699 16.5494 79.4804 16.5494H79.63V19.0988C79.548 19.2578 79.4708 19.494 79.4708 19.735C79.4708 19.735 79.4708 19.735 78.8291 21.5663C78.8291 21.5663 78.8291 21.5663 79.5045 21.5663H79.63V23.2337H79.1958C78.9497 23.2337 78.6699 23.2337 78.3467 23.2337C78.3467 23.2337 78.3467 23.2337 77.787 24.588C77.6278 25.2241 77.3046 25.4651 76.663 25.4651C76.663 25.4651 76.663 25.4651 75.4617 25.4651C75.4617 25.4651 75.4617 25.4651 75.4617 23.7109C75.4617 23.7109 75.4617 23.7109 75.8621 23.7109C76.0261 23.7109 76.0261 23.7109 76.1033 23.6337C76.1033 23.6337 76.1033 23.6337 78.6699 16.5494Z" />
				<path fill-rule="evenodd" clip-rule="evenodd" d="M79.6297 16.5494H80.5898C80.5898 16.5494 80.5898 16.5494 83.1612 23.6337C83.2384 23.7109 83.2384 23.7109 83.4024 23.7109H83.7208C83.7208 23.7109 83.7208 23.7109 83.7208 25.4651C83.7208 25.4651 83.7208 25.4651 82.5967 25.4651C81.9551 25.4651 81.6367 25.2241 81.4726 24.588C81.4726 24.588 81.4726 24.588 80.913 23.2337C80.913 23.2337 80.913 23.2337 79.8323 23.2337H79.6297V21.5663H80.4306C80.4306 21.5663 80.4306 21.5663 79.7889 19.735C79.7889 19.494 79.7117 19.2578 79.6297 19.0988V16.5494Z" />
				<path fill-rule="evenodd" clip-rule="evenodd" d="M24.2887 8.88189C24.3804 8.85297 24.501 8.91081 24.6216 9.06984C24.6216 9.06984 24.6216 9.06984 30.0732 14.4C30.3916 14.718 30.3916 15.2 30.0732 15.4361C30.0732 15.4361 30.0732 15.4361 24.6216 20.8482C24.501 21.0072 24.3804 21.0457 24.2887 20.9976C24.1971 20.9494 24.1392 20.8096 24.1392 20.6072V9.22888C24.1392 9.03129 24.1971 8.9108 24.2887 8.88189Z" />
				<path fill-rule="evenodd" clip-rule="evenodd" d="M14.9629 0H15.3489L15.7203 0.154217C15.7203 0.154217 15.7203 0.154217 21.3312 5.7253C21.5724 6.04337 21.4904 6.28434 21.0899 6.28434C21.0899 6.28434 21.0899 6.28434 18.7646 6.28434C18.3641 6.28434 18.0457 6.60241 18.0457 7.00241C18.0457 7.00241 18.0457 7.00241 18.0457 11.1373C18.0457 11.5373 17.7225 11.8554 17.24 11.8554C17.24 11.8554 17.24 11.8554 13.1537 11.8554C12.7533 11.8554 12.4301 11.5373 12.4301 11.1373C12.4301 11.1373 12.4301 11.1373 12.4301 7.00241C12.4301 6.60241 12.1117 6.28434 11.7064 6.28434H9.22182C8.82139 6.28434 8.73938 6.04337 8.9806 5.7253C8.9806 5.7253 8.9806 5.7253 14.5963 0.154217L14.9629 0Z" />
				<path fill-rule="evenodd" clip-rule="evenodd" d="M6.17287 8.76151C6.27418 8.8097 6.3369 8.94946 6.3369 9.15187V20.7663C6.3369 20.9687 6.27418 21.0892 6.17287 21.1278C6.07638 21.1663 5.93647 21.1278 5.77244 21.0073C5.77244 21.0073 5.77244 21.0073 0.23881 15.4362C-0.0796033 15.2001 -0.0796033 14.7181 0.23881 14.4001C0.23881 14.4001 0.23881 14.4001 5.77244 8.9109C5.93647 8.75187 6.07638 8.71331 6.17287 8.76151Z" />
				<path fill-rule="evenodd" clip-rule="evenodd" d="M13.1535 17.9036C13.1535 17.9036 13.1535 17.9036 17.2398 17.9036C17.7223 17.9036 18.0455 18.2217 18.0455 18.6217C18.0455 18.6217 18.0455 18.6217 18.0455 22.9976C18.0455 23.4747 18.3639 23.7928 18.7644 23.7928H20.9305C21.331 23.7928 21.4902 24.0289 21.1718 24.2699C21.1718 24.2699 21.1718 24.2699 15.7201 29.759C15.5561 29.9181 15.3583 30 15.1557 30C14.9579 30 14.7553 29.9181 14.596 29.759C14.596 29.759 14.596 29.759 9.14443 24.2699C8.82119 24.0289 8.9804 23.7928 9.38083 23.7928C9.38083 23.7928 9.38083 23.7928 11.7062 23.7928C12.1115 23.7928 12.4299 23.4747 12.4299 22.9976C12.4299 22.9976 12.4299 22.9976 12.4299 18.6217C12.4299 18.2217 12.7531 17.9036 13.1535 17.9036Z" />
		</symbol>
	</svg>